# xmcd CD database file generated by Grip 3.2.0
# 
# Track frame offsets:
#       150
#       9222
#       20222
#       40817
#       53040
#       64335
#       71630
#       91050
#       104612
#       116032
#       130580
#       142180
#       152900
#       163552
# 
# Disc length: 2229 seconds
# 
# Revision: 1
# Processed by: cddbd v1.5.2PL0 Copyright (c) Steve Scherf et al.
# Submitted via: Grip 3.2.0
# 
DISCID=c008b30e
DTITLE=Anna Maria Jopek - Dzisiaj z Betleyem
DYEAR=1998
DGENRE=Jazz
TTITLE0=Gdy sliczna panna
TTITLE1=Dzisiaj w Betleyem
TTITLE2=Medrcy swiata
TTITLE3=Bracia patrzcie
TTITLE4=Anna Maria Jopek, Stanislaw Jopek - Jezus malusienki
TTITLE5=Z narodzenia pana
TTITLE6=Lulajze Jezuniu
TTITLE7=W zlobie lezy
TTITLE8=Anna Maria Jopek, Marek Napiorkowski - Bog sie rodzi
TTITLE9=Gdy sie Chrystus rodzi
TTITLE10=Hej w Dzien Narodzenia
TTITLE11=Anna Maria Jopek, Stanislaw Jopek - Mizerna cicha
TTITLE12=Anna Maria Jopek, Jeremi Przybora - Na calej polaci snieg
TTITLE13=Gdy sliczna Panna
EXTD=YEAR: 1999
EXTT0=
EXTT1=
EXTT2=
EXTT3=
EXTT4=
EXTT5=
EXTT6=
EXTT7=
EXTT8=
EXTT9=
EXTT10=
EXTT11=
EXTT12=
EXTT13=
PLAYORDER=
